<?xml version="1.0" standalone="yes"?>
<svg xmlns="http://www.w3.org/2000/svg" width="112" height="112">
<path style="fill:#ffffff; stroke:none;" d="M0 0L0 16L6 7C15.694 14.3892 27.8741 7.35114 39 10C40.4091 7.43578 41.4028 6.3297 44 5L45 9C49.3639 9.08526 53.1691 10.5991 57 8C55.3161 7.77612 54.6865 7.78174 53 8C55.2243 6.43137 56.2936 6.51574 59 7L56 12C60.649 11.921 64.3107 13.4107 68 10C73.4533 14.4992 77.5038 12.5369 84 12.0895C88.9676 11.7474 94.0218 12 99 12C99 9.77291 100.354 9.6463 102 8L102 10C103.3 9.35014 103 9.85322 103 8L106 9C108.108 7.10059 108.954 7.0022 111 9C112.213 6.11033 111.998 3.12586 112 0L0 0z"/>
<path style="fill:#96db21; stroke:none;" d="M41.6667 5.33334C41.2222 5.77779 42.2778 5.7222 42.3333 5.66666C42.7777 5.22225 41.7222 5.27776 41.6667 5.33334z"/>
<path style="fill:#e7f0b5; stroke:none;" d="M43 5L44 6L43 5z"/>
<path style="fill:#c6ed95; stroke:none;" d="M40.6667 6.33334C40.2222 6.77779 41.2778 6.72221 41.3333 6.66666C41.7778 6.22224 40.7222 6.27778 40.6667 6.33334z"/>
<path style="fill:#ecf1c7; stroke:none;" d="M42 6L42 8L44 8C43.4549 6.36484 43.6352 6.54505 42 6z"/>
<path style="fill:#85d504; stroke:none;" d="M43 6L44 7L43 6z"/>
<path style="fill:#e1e574; stroke:none;" d="M53 6C54.2483 6.6848 54.5484 6.74879 56 7C54.7517 6.3152 54.4516 6.25121 53 6z"/>
<path style="fill:#eff2b8; stroke:none;" d="M56 6L56 8C57.6351 7.45495 57.455 7.63514 58 6L56 6z"/>
<path style="fill:#fda4a3; stroke:none;" d="M108 6C107.014 7.47853 107 7.20317 107 9C108.289 7.55739 108.401 7.76626 108 6z"/>
<path style="fill:#66e6c6; stroke:none;" d="M6 7L7 8L6 7z"/>
<path style="fill:#8dd919; stroke:none;" d="M40 7L41 8L40 7z"/>
<path style="fill:#fcfcf1; stroke:none;" d="M41.3333 7.66666C41.2778 7.72219 41.2222 8.7778 41.6667 8.33334C41.7223 8.27775 41.7778 7.22224 41.3333 7.66666z"/>
<path style="fill:#aecd04; stroke:none;" d="M44 7L45 11C45.393 9.076 45.1456 8.64045 44 7z"/>
<path style="fill:#eaeda4; stroke:none;" d="M53.6667 7.33334C53.2222 7.77779 54.2778 7.7222 54.3333 7.66666C54.7777 7.22225 53.7222 7.27776 53.6667 7.33334z"/>
<path style="fill:#dedf59; stroke:none;" d="M57 7L55 10C57.5089 9.59093 57.7754 9.27072 59 7L57 7z"/>
<path style="fill:#fc2e2d; stroke:none;" d="M106.333 7.66666C106.278 7.72222 106.222 8.77776 106.667 8.33334C106.722 8.27778 106.778 7.22222 106.333 7.66666z"/>
<path style="fill:#fd8f8e; stroke:none;" d="M109 7C108.782 8.68647 108.776 9.31614 109 11C109.71 9.24052 109.71 8.75948 109 7z"/>
<path style="fill:#fac9c4; stroke:none;" d="M110 7L111 8L110 7z"/>
<path style="fill:#0bd8a4; stroke:none;" d="M5 8C5.67251 18.0147 14.2302 17.4817 19.5664 24.1049C21.9356 27.0457 21.9675 30.4128 22 34L32 31C32.7765 33.1317 33.1302 33.7708 35 35C30.5719 23.4717 17.1994 10.758 5 8z"/>
<path style="fill:#e6f4c7; stroke:none;" d="M39 8L39 13C40.2741 11.6589 41.0407 10.5969 42 9L39 8z"/>
<path style="fill:#c5e87a; stroke:none;" d="M40 8L41 9L40 8z"/>
<path style="fill:#c0d750; stroke:none;" d="M42 8L42 11C42.6961 9.44628 42.6961 9.5537 42 8z"/>
<path style="fill:#ffffff; stroke:none;" d="M43 8L43 11C43.6961 9.44629 43.6961 9.5537 43 8z"/>
<path style="fill:#cfd022; stroke:none;" d="M47 8C48.2228 9.19518 48.42 9.31643 50 10C48.7772 8.80482 48.58 8.68358 47 8z"/>
<path style="fill:#fc8b87; stroke:none;" d="M101 8L99 12C101.644 11.6807 102.058 10.4809 101 8z"/>
<path style="fill:#fda6a3; stroke:none;" d="M103.667 8.33334C103.222 8.77777 104.278 8.72221 104.333 8.66666C104.778 8.22223 103.722 8.27776 103.667 8.33334z"/>
<path style="fill:#feeeee; stroke:none;" d="M108 8L109 9L108 8z"/>
<path style="fill:#fa504d; stroke:none;" d="M110 8L111 9L110 8z"/>
<path style="fill:#0bd7c7; stroke:none;" d="M4 9C0.174026 18.1051 6.94818 19.898 12.9846 25.2099C16.0985 27.9501 18.0077 31.651 22 33C21.9054 22.5503 16.1946 22.1604 9.18904 16.3627C6.77778 14.3671 5.5863 11.6007 4 9z"/>
<path style="fill:#e0f7cf; stroke:none;" d="M27 9C28.506 9.68304 29.3148 9.82589 31 10C29.494 9.31697 28.6852 9.17411 27 9z"/>
<path style="fill:#d5f2b6; stroke:none;" d="M31 9C33.3315 9.98453 35.4567 9.98125 38 10C35.6684 9.01547 33.5433 9.01875 31 9z"/>
<path style="fill:#d8c70b; stroke:none;" d="M46 9C46.0138 13.0423 46.414 16.2571 48 20L53 15C53.0161 19.5468 53.0653 22.3106 57 25C56.7993 22.5813 56.7283 20.409 57 18C60.7719 27.3461 64.8172 30.7491 75 32C74.9481 29.4717 74.7224 27.4181 74 25L72 25C71.4382 26.8006 71.1759 28.1218 71 30C67.0223 22.9441 63.4401 17.9414 56 14L58 13C54.4118 10.1267 50.407 9.82211 46 9z"/>
<path style="fill:#fc4f4e; stroke:none;" d="M102 10C103.103 11.4566 103.543 11.8966 105 13L106 10C104.313 9.78174 103.684 9.77612 102 10z"/>
<path style="fill:#fefcfa; stroke:none;" d="M104 9L105 10L104 9z"/>
<path style="fill:#fc7d7b; stroke:none;" d="M105 9L106 10L105 9z"/>
<path style="fill:#fd0000; stroke:none;" d="M106 9L105 13L103 11C97.9028 12.8811 92.3921 12.9857 87 13C90.7703 19.9428 100.274 21.0761 103 29C106.251 29.6801 106.896 30.7037 107 34C108.697 32.6931 109.973 31.5948 112 31C111.679 23.5343 110.698 16.5079 111 9C109.985 10.1394 109.691 10.6115 109 12L106 9z"/>
<path style="fill:#fc514f; stroke:none;" d="M107 9L108 10L107 9z"/>
<path style="fill:#fcacaa; stroke:none;" d="M111 9L111 12C111.696 10.4463 111.696 10.5537 111 9z"/>
<path style="fill:#4cd8de; stroke:none;" d="M3 10L4 11L3 10z"/>
<path style="fill:#b6f3e4; stroke:none;" d="M11 10L12 11L11 10z"/>
<path style="fill:#96eec6; stroke:none;" d="M17 10C18.2484 10.6848 18.5484 10.7488 20 11C18.7516 10.3152 18.4516 10.2512 17 10z"/>
<path style="fill:#0ad779; stroke:none;" d="M15 11C17.5676 16.3922 22.8701 19.7347 26.9606 24.0008C30.5183 27.7111 32.8752 32.0258 36 36C36.1303 31.3704 34.4607 26.7066 31.6057 23C28.2331 18.6214 23.7844 15.9362 24 10L15 11z"/>
<path style="fill:#7ad80b; stroke:none;" d="M23 11C26.1018 19.8763 33.4495 26.0794 37 35C38.8398 33.2827 39.3486 32.4343 40 30C46.6644 31.9883 54.0943 32.1273 61 33L57 27C49.2316 26.6531 47.0017 16.1558 45 10C43.9189 11.458 43.5639 12.248 43 14C40.7511 12.8465 40.1535 12.2489 39 10C33.6605 10 28.146 9.47891 23 11z"/>
<path style="fill:#95c50e; stroke:none;" d="M41 10C41.0313 11.8318 40.9205 11.5587 42 13C41.7488 11.5484 41.6848 11.2483 41 10z"/>
<path style="fill:#e1bc3d; stroke:none;" d="M55.3333 10.6667C55.2778 10.7222 55.2222 11.7778 55.6667 11.3333C55.7222 11.2778 55.7778 10.2222 55.3333 10.6667z"/>
<path style="fill:#f2d4a9; stroke:none;" d="M68 10L69 11L68 10z"/>
<path style="fill:#fcc7c3; stroke:none;" d="M98 10C99.2484 10.6848 99.5484 10.7488 101 11C99.7517 10.3152 99.4516 10.2512 98 10z"/>
<path style="fill:#fec9c8; stroke:none;" d="M107 10L108 11L107 10z"/>
<path style="fill:#fb2727; stroke:none;" d="M108.333 10.6667C108.278 10.7222 108.222 11.7778 108.667 11.3333C108.722 11.2778 108.778 10.2222 108.333 10.6667z"/>
<path style="fill:#f2eda8; stroke:none;" d="M42 11C41.4549 12.6352 41.6352 12.4549 40 13C42.2631 13.8227 42.7525 13.0035 44 11L42 11z"/>
<path style="fill:#f5ecca; stroke:none;" d="M58.6667 11.3333C58.2222 11.7778 59.2778 11.7222 59.3333 11.6667C59.7777 11.2223 58.7222 11.2778 58.6667 11.3333z"/>
<path style="fill:#dd880f; stroke:none;" d="M67 11C69.4645 17.3599 72.2288 21.1795 78 25L78 23C84.2229 29.794 89.4709 35.1408 98 39C97.4578 31.8939 91.7646 27.8488 85 27L85 23C83.2032 23 83.4785 23.0143 82 24C80.4274 20.1952 76.9789 17.9204 76 14C72.7332 13.5341 70.0551 12.1954 67 11z"/>
<path style="fill:#e8b468; stroke:none;" d="M69 11L70 12L69 11z"/>
<path style="fill:#fea4a4; stroke:none;" d="M105 11L106 12L105 11z"/>
<path style="fill:#2ad858; stroke:none;" d="M23.3333 12.6667C23.2778 12.7222 23.2222 13.7778 23.6667 13.3333C23.7222 13.2778 23.7778 12.2222 23.3333 12.6667z"/>
<path style="fill:#cfde5c; stroke:none;" d="M40 12L41 13L40 12z"/>
<path style="fill:#d8ad0b; stroke:none;" d="M56 13C61.2667 19.3857 66.9668 21.9397 70 30C70.9241 28.3518 71.4494 26.8251 72 25L74 25L75 30L80 30C80.2971 36.5016 84.4109 42.6404 83 49L87 49L90 41C91.8467 41.2104 93.1434 41.194 95 41C94.973 45.0425 98.3829 41.1996 99 39C90.1319 34.9878 85.3964 28.7016 78 23L78 25C75.5284 22.7216 72.6102 20.6272 70.5841 17.9259C69.513 16.4978 69 14.3224 67.4159 13.3449C64.5586 11.5816 59.0956 12.3939 56 13z"/>
<path style="fill:#e2c65a; stroke:none;" d="M61 12L62 13L61 12z"/>
<path style="fill:#ecd88e; stroke:none;" d="M65 12L66 13L65 12z"/>
<path style="fill:#eec68d; stroke:none;" d="M70 12L71 13L70 12z"/>
<path style="fill:#f5dcc6; stroke:none;" d="M80 12C81.769 12.7789 83.0359 12.9124 85 13C83.231 12.2211 81.9641 12.0876 80 12z"/>
<path style="fill:#e9ae7f; stroke:none;" d="M85 12C86.2484 12.6848 86.5484 12.7488 88 13C86.7516 12.3152 86.4516 12.2512 85 12z"/>
<path style="fill:#f24426; stroke:none;" d="M88 12C90.6127 13.0977 93.1645 12.9928 96 13C93.3873 11.9023 90.8355 12.0072 88 12z"/>
<path style="fill:#fb413d; stroke:none;" d="M97 12L98 13L97 12z"/>
<path style="fill:#fca6a3; stroke:none;" d="M98 12L99 13L98 12z"/>
<path style="fill:#fb7a77; stroke:none;" d="M111.333 12.6667C111.278 12.7222 111.222 13.7778 111.667 13.3333C111.722 13.2778 111.778 12.2222 111.333 12.6667z"/>
<path style="fill:#a9d8f2; stroke:none;" d="M1 13L2 14L1 13z"/>
<path style="fill:#ebbe7b; stroke:none;" d="M71 13L72 14L71 13z"/>
<path style="fill:#f1d6a6; stroke:none;" d="M74 13C75.2483 13.6848 75.5484 13.7488 77 14C75.7516 13.3152 75.4516 13.2512 74 13z"/>
<path style="fill:#d96d26; stroke:none;" d="M77.6667 13.3333C77.2222 13.7778 78.2778 13.7222 78.3333 13.6667C78.7778 13.2222 77.7222 13.2778 77.6667 13.3333z"/>
<path style="fill:#d84a0b; stroke:none;" d="M75 15L75 17C78.0934 19.0238 80.0775 20.8332 82 24L85 23L85 27C93.363 28.816 97.9774 32.727 99 41C101.797 39.8025 103.496 38.6477 105 36L108 37C107.623 33.0412 107.624 30.0836 104 28L103 31C99.6405 20.1095 86.7153 10.0565 75 15z"/>
<path style="fill:#0a8cd6; stroke:none;" d="M1 14C-0.344271 21.2408 -0.0757446 32.9201 8 36C9.52568 30.2019 5.87049 27.8909 3.45602 23C2.03563 20.1228 2.22503 16.8913 1 14z"/>
<path style="fill:#fd8f8d; stroke:none;" d="M110 14L110 18C110.71 16.2405 110.71 15.7595 110 14z"/>
<path style="fill:#ffffff; stroke:none;" d="M111 14L111 19C111.83 16.9695 111.83 16.0305 111 14z"/>
<path style="fill:#46d73e; stroke:none;" d="M24 15L25 16L24 15z"/>
<path style="fill:#d5d70a; stroke:none;" d="M52 15C48.4947 19.9352 49.4336 28.1203 57 27C58.2938 29.7474 59.1157 31.0272 62 32L63 28C60.2511 25.0829 58.7505 21.9344 58 18C56.2906 20.4379 56.5314 22.0595 57 25C53.6601 21.7839 53.6898 18.9758 52 15z"/>
<path style="fill:#75bae8; stroke:none;" d="M0 16L1 17L0 16z"/>
<path style="fill:#0bc4d8; stroke:none;" d="M2 17C2.47893 26.2125 9.31547 37.7659 19 38C19.8137 27.062 10.2863 22.109 2 17z"/>
<path style="fill:#fdb2b2; stroke:none;" d="M111 19L111 23C111.71 21.2405 111.71 20.7595 111 19z"/>
<path style="fill:#e62c05; stroke:none;" d="M96 22C97.506 22.683 98.3148 22.8259 100 23C98.4939 22.317 97.6852 22.1741 96 22z"/>
<path style="fill:#fe5151; stroke:none;" d="M111 23L111 26C111.696 24.4463 111.696 24.5537 111 23z"/>
<path style="fill:#7da5ea; stroke:none;" d="M0.333333 25.6667C0.277779 25.7222 0.222226 26.7778 0.666667 26.3333C0.722215 26.2778 0.777785 25.2222 0.333333 25.6667z"/>
<path style="fill:#0a52d7; stroke:none;" d="M1 26L0 35L4 34C3.12138 31.2597 2.37132 28.5197 1 26z"/>
<path style="fill:#e92904; stroke:none;" d="M102 26L102 31C103.205 28.9024 103.143 28.1545 102 26z"/>
<path style="fill:#b5c9f2; stroke:none;" d="M0 27L0 30C0.696103 28.4463 0.696101 28.5537 0 27z"/>
<path style="fill:#b6eb88; stroke:none;" d="M62 29L62 31C63.6352 30.4549 63.4549 30.6352 64 29L62 29z"/>
<path style="fill:#2fd755; stroke:none;" d="M35.3333 30.6667C35.2778 30.7222 35.2222 31.7778 35.6667 31.3333C35.7222 31.2778 35.7778 30.2222 35.3333 30.6667z"/>
<path style="fill:#65d613; stroke:none;" d="M40 30C42.273 32.6012 45.6944 31.9974 49 32C46.1805 30.8055 43.0074 30.7182 40 30z"/>
<path style="fill:#e4f7d3; stroke:none;" d="M63 30L61.6667 32C62.0222 36.6213 66.7505 35.1958 64 34C65.4785 33.0143 65.2032 33 67 33L63 30z"/>
<path style="fill:#d8cb33; stroke:none;" d="M64 30C65.506 30.683 66.3148 30.8259 68 31C66.494 30.317 65.6852 30.1741 64 30z"/>
<path style="fill:#ebe48a; stroke:none;" d="M68 30L69 31L68 30z"/>
<path style="fill:#f4e7bb; stroke:none;" d="M75 32C76.8725 31.9922 77.6122 31.8858 79 33C80.2553 29.67 76.5607 29.8565 75 32z"/>
<path style="fill:#fecfd0; stroke:none;" d="M110 30L111 31L110 30z"/>
<path style="fill:#93eddb; stroke:none;" d="M29 31C30.2484 31.6848 30.5484 31.7488 32 32C30.7516 31.3152 30.4516 31.2512 29 31z"/>
<path style="fill:#ffffff; stroke:none;" d="M64 31C65.2484 31.6848 65.5484 31.7488 67 32C65.5215 32.9857 65.7968 33 64 33C64.5977 34.1954 64.4661 33.9774 66 35L63 36C60.1505 32.0489 55.4969 33 51 33C45.9992 33 40.7708 34.8811 36.0394 34.7323C33.4182 34.6498 31.6136 32.382 28.9105 32.5332C25.8403 32.7049 23.1645 34.0255 20 34C16.6641 40.5495 12.5536 36.3536 7.00077 35.2801C5.1832 34.9287 2.47183 34.1942 1.02778 35.7955C-1.70209 38.8228 0 48.1569 0 52L0 97C1.80258 95.5556 3.39965 94.3331 1 93C5.45378 86.64 1.60521 78.7575 7 72L5 76L9 76L9 72L12 73C11.2321 71.6859 11.3142 71.7679 10 71L10 69C11.3142 68.2321 11.2321 68.3141 12 67L9 66C12.1964 65.8884 14.8984 65.9419 18 65L19 70C20.4162 69.5279 20.8137 69.1863 22 68C21.4103 66.2865 20.8337 64.8236 20.8789 62.9753C21.2649 47.1747 43.1439 56.5444 52 54C52.4015 49.9144 53.9098 48.6494 58 49C60.5792 44.5872 65.6152 41.91 67 37C70.0152 38.995 72.2568 38.7319 73 35C76.6606 35.3203 77.9246 34.5214 79 31C73.8707 32.207 69.1826 31.107 64 31z"/>
<path style="fill:#ece685; stroke:none;" d="M71.6667 31.3333C71.2222 31.7778 72.2778 31.7222 72.3333 31.6667C72.7778 31.2222 71.7222 31.2778 71.6667 31.3333z"/>
<path style="fill:#fd6160; stroke:none;" d="M109 31C110.248 31.6848 110.548 31.7488 112 32C110.752 31.3152 110.452 31.2512 109 31z"/>
<path style="fill:#b4f3ea; stroke:none;" d="M27 32L28 33L27 32z"/>
<path style="fill:#6de6b5; stroke:none;" d="M40 32C41.2483 32.6848 41.5484 32.7488 43 33C41.7516 32.3152 41.4516 32.2512 40 32z"/>
<path style="fill:#a8efbf; stroke:none;" d="M43.6667 32.3333C43.2222 32.7778 44.2778 32.7222 44.3333 32.6667C44.7778 32.2222 43.7222 32.2778 43.6667 32.3333z"/>
<path style="fill:#ccf5d6; stroke:none;" d="M45 32C46.2484 32.6848 46.5484 32.7488 48 33C46.7516 32.3152 46.4516 32.2512 45 32z"/>
<path style="fill:#8ee9a2; stroke:none;" d="M48 32C49.769 32.7789 51.0359 32.9124 53 33C51.231 32.2211 49.9641 32.0876 48 32z"/>
<path style="fill:#dbf8e7; stroke:none;" d="M53 32C54.506 32.683 55.3148 32.8259 57 33C55.494 32.317 54.6852 32.1741 53 32z"/>
<path style="fill:#a0e56b; stroke:none;" d="M57 32L58 33L57 32z"/>
<path style="fill:#d85f0a; stroke:none;" d="M95 32C96.4856 34.0286 97.3591 35.5754 98 38C99.241 34.7363 98.2305 33.07 95 32z"/>
<path style="fill:#ffffff; stroke:none;" d="M109 32C109.166 34.8904 109.367 36.2926 107 38C107.472 39.4162 107.814 39.8137 109 41L105 39C103.283 43.3218 99.9414 46.3522 99 51C98.235 47.6802 98.6689 46.4799 101 44C98.4768 43.0098 96.6418 43.3831 94 44C94 45.7968 94.0143 45.5215 95 47C93.2167 47.9802 93.4057 47.9076 93 50C88.0325 48.8437 85.5114 49.8464 81 52C83.3387 55.7457 85.1856 59.5667 88 63C84.5907 60.3333 82.4093 56.6667 79 54C79.1759 55.8781 79.4382 57.1994 80 59L72 59L70 66C68.2773 65.0659 66.8938 64.4646 65 64C65.5451 65.6352 65.3648 65.4549 67 66C65.2323 67.3485 64.0175 68.1219 62 69C64.3934 69.7408 66.4926 69.3022 69 69C68.2994 71.8111 67.0588 74.3038 66 77C74.9655 78.6634 85.5598 65.5763 91 79L87 80C89.8448 88.5712 100.485 82.0084 105.995 81.1921C107.925 80.9062 110.113 81.6583 112 82L112 49C112 43.0959 112.688 36.956 109 32z"/>
<path style="fill:#fc1b1b; stroke:none;" d="M110 32L111 33L110 32z"/>
<path style="fill:#fda9a9; stroke:none;" d="M111 32L112 33L111 32z"/>
<path style="fill:#c0f5eb; stroke:none;" d="M20.6667 33.3333C20.2222 33.7778 21.2778 33.7222 21.3333 33.6667C21.7778 33.2222 20.7222 33.2778 20.6667 33.3333z"/>
<path style="fill:#aff2e3; stroke:none;" d="M25 33L26 34L25 33z"/>
<path style="fill:#80ead9; stroke:none;" d="M32 33L33 34L32 33z"/>
<path style="fill:#aff2d4; stroke:none;" d="M39 33L40 34L39 33z"/>
<path style="fill:#d8c80b; stroke:none;" d="M79 33L75 37C76.9551 41.9877 79.9265 45.5756 81 51L86 50C84.7517 49.3152 84.4516 49.2512 83 49C85.0833 43.911 82.2032 37.2983 79 33z"/>
<path style="fill:#ff5558; stroke:none;" d="M108 33L109 34L108 33z"/>
<path style="fill:#fda6a6; stroke:none;" d="M110 33L111 34L110 33z"/>
<path style="fill:#fc0000; stroke:none;" d="M111 33L111 36C111.696 34.4463 111.696 34.5537 111 33z"/>
<path style="fill:#91e4ed; stroke:none;" d="M19 34L19 37C19.6961 35.4463 19.6961 35.5537 19 34z"/>
<path style="fill:#7be9cd; stroke:none;" d="M22.6667 34.3333C22.2222 34.7778 23.2778 34.7222 23.3333 34.6667C23.7778 34.2222 22.7222 34.2778 22.6667 34.3333z"/>
<path style="fill:#a7edb1; stroke:none;" d="M38 34L39 35L38 34z"/>
<path style="fill:#eb0800; stroke:none;" d="M108 34L108 37C108.696 35.4463 108.696 35.5537 108 34z"/>
<path style="fill:#76b9e9; stroke:none;" d="M5 35L6 36L5 35z"/>
<path style="fill:#69e8d4; stroke:none;" d="M34 35L35 36L34 35z"/>
<path style="fill:#9ef0dd; stroke:none;" d="M36 35L37 36L36 35z"/>
<path style="fill:#e9e976; stroke:none;" d="M73.6667 35.3333C73.2222 35.7778 74.2778 35.7222 74.3333 35.6667C74.7778 35.2222 73.7222 35.2778 73.6667 35.3333z"/>
<path style="fill:#ffbbbc; stroke:none;" d="M109 35L110 36L109 35z"/>
<path style="fill:#d6d80b; stroke:none;" d="M74 36L69 40C72.1396 44.3692 76.2805 48.3844 81 51C80.2137 44.9639 77.6408 40.7968 74 36z"/>
<path style="fill:#e3db4e; stroke:none;" d="M75.6667 36.3333C75.2222 36.7778 76.2778 36.7222 76.3333 36.6667C76.7778 36.2222 75.7222 36.2778 75.6667 36.3333z"/>
<path style="fill:#f31109; stroke:none;" d="M105 36C105.684 37.58 105.805 37.7772 107 39L107 36L105 36z"/>
<path style="fill:#f84f49; stroke:none;" d="M109 36L110 37L109 36z"/>
<path style="fill:#fc4c4c; stroke:none;" d="M111 36L112 37L111 36z"/>
<path style="fill:#67dae6; stroke:none;" d="M12 37L13 38L12 37z"/>
<path style="fill:#f4fae0; stroke:none;" d="M67 37L66 42C67.475 40.0648 67.791 39.3073 67 37z"/>
<path style="fill:#f9b1ab; stroke:none;" d="M107 37C108.248 37.6848 108.548 37.7488 110 38C108.752 37.3152 108.452 37.2512 107 37z"/>
<path style="fill:#51d5e3; stroke:none;" d="M14 38C15.5061 38.683 16.3148 38.8259 18 39C16.494 38.317 15.6852 38.1741 14 38z"/>
<path style="fill:#e50800; stroke:none;" d="M104 38C103.014 39.4785 103 39.2032 103 41C104.289 39.5574 104.401 39.7663 104 38z"/>
<path style="fill:#fc8e88; stroke:none;" d="M105 38L106 39L105 38z"/>
<path style="fill:#f4f3b7; stroke:none;" d="M68.6667 39.3333C68.2222 39.7778 69.2778 39.7222 69.3333 39.6667C69.7778 39.2222 68.7222 39.2778 68.6667 39.3333z"/>
<path style="fill:#e0e149; stroke:none;" d="M70 39L71 40L70 39z"/>
<path style="fill:#e66e41; stroke:none;" d="M101 39L102 44C103.204 41.5981 102.808 40.9636 101 39z"/>
<path style="fill:#f6e7cf; stroke:none;" d="M102 39L103 40L102 39z"/>
<path style="fill:#fd8b8a; stroke:none;" d="M106.667 39.3333C106.222 39.7778 107.278 39.7222 107.333 39.6667C107.778 39.2222 106.722 39.2778 106.667 39.3333z"/>
<path style="fill:#95d80b; stroke:none;" d="M68 40C67.4549 41.6352 67.6352 41.4549 66 42L67 47L69 46L69 48C70.8694 48.6231 71.5219 48.0292 73 50C73.9482 51.2643 72.8063 52.8035 75 54C77.2733 55.24 77.9413 53.0587 79 52L80 53C78.3117 47.346 72.6928 43.269 68 40z"/>
<path style="fill:#fbe1d9; stroke:none;" d="M104.333 40.6667C104.278 40.7222 104.222 41.7778 104.667 41.3333C104.722 41.2778 104.778 40.2222 104.333 40.6667z"/>
<path style="fill:#fcadac; stroke:none;" d="M107.667 40.3333C107.222 40.7777 108.278 40.7222 108.333 40.6667C108.778 40.2222 107.722 40.2778 107.667 40.3333z"/>
<path style="fill:#09b666; stroke:none;" d="M55 41L57 44C58.1178 41.8603 57.2508 41.4732 55 41z"/>
<path style="fill:#c5ec8c; stroke:none;" d="M65.3333 41.6667C65.2778 41.7222 65.2222 42.7778 65.6667 42.3333C65.7222 42.2778 65.7778 41.2222 65.3333 41.6667z"/>
<path style="fill:#ace350; stroke:none;" d="M67 41L68 42L67 41z"/>
<path style="fill:#e1bf37; stroke:none;" d="M90 41C90.7765 43.1317 91.1302 43.7708 93 45C92.5216 42.6078 92.1736 42.0868 90 41z"/>
<path style="fill:#d8740b; stroke:none;" d="M92 41L93 43C94.6351 42.455 94.455 42.6351 95 41L92 41z"/>
<path style="fill:#dd6724; stroke:none;" d="M98 41C99.2484 41.6848 99.5484 41.7488 101 42C99.7517 41.3152 99.4516 41.2512 98 41z"/>
<path style="fill:#eebc8c; stroke:none;" d="M101 41L102 42L101 41z"/>
<path style="fill:#06d978; stroke:none;" d="M54 42C54.8993 44.1236 54.8764 44.1007 57 45C56.5175 42.636 56.364 42.4825 54 42z"/>
<path style="fill:#64d09f; stroke:none;" d="M58 42L59 43L58 42z"/>
<path style="fill:#e2f5c3; stroke:none;" d="M61 43C62.6593 43.4065 63.2418 43.3086 65 43C63.1908 42.4257 62.9312 42.5347 61 43z"/>
<path style="fill:#f9f2db; stroke:none;" d="M89 42L90 43L89 42z"/>
<path style="fill:#f2cbaf; stroke:none;" d="M98 42L99 43L98 42z"/>
<path style="fill:#e8a964; stroke:none;" d="M99.6667 42.3333C99.2222 42.7778 100.278 42.7222 100.333 42.6667C100.778 42.2222 99.7222 42.2778 99.6667 42.3333z"/>
<path style="fill:#f5cdbb; stroke:none;" d="M101.333 42.6667C101.278 42.7222 101.222 43.7778 101.667 43.3333C101.722 43.2778 101.778 42.2222 101.333 42.6667z"/>
<path style="fill:#7ad80a; stroke:none;" d="M60 48C62.6346 50.1733 64.4598 53.1813 67.1844 55.2315C70.5834 57.7891 74.947 58.2337 79 59C78.3585 57.189 78.0507 55.9077 78 54C73.895 51.9707 71.7747 47.2906 67 47L67 43C63.3016 43.5742 61.684 44.6548 60 48z"/>
<path style="fill:#efdd9d; stroke:none;" d="M89 43L88 49C91.3042 48.2772 90.4865 46.0425 91 43L89 43z"/>
<path style="fill:#f0c99d; stroke:none;" d="M92 43C92.5451 44.6352 92.3648 44.4549 94 45L94 43L92 43z"/>
<path style="fill:#e49a53; stroke:none;" d="M94.6667 43.3333C94.2222 43.7778 95.2778 43.7222 95.3333 43.6667C95.7778 43.2222 94.7222 43.2778 94.6667 43.3333z"/>
<path style="fill:#62e5a8; stroke:none;" d="M54 44L55 45L54 44z"/>
<path style="fill:#77dc7c; stroke:none;" d="M57 44L58 45L57 44z"/>
<path style="fill:#aeeb94; stroke:none;" d="M58.3333 44.6667C58.2778 44.7222 58.2222 45.7778 58.6667 45.3333C58.7222 45.2778 58.7778 44.2222 58.3333 44.6667z"/>
<path style="fill:#b9eb7e; stroke:none;" d="M60 44L60 46C61.6351 45.4549 61.455 45.6351 62 44L60 44z"/>
<path style="fill:#dfba33; stroke:none;" d="M88 44L87 47C88.7663 46.0214 88.9555 45.7782 88 44z"/>
<path style="fill:#ffffff; stroke:none;" d="M90.3333 44.6667C90.2778 44.7222 90.2222 45.7778 90.6667 45.3333C90.7222 45.2778 90.7778 44.2222 90.3333 44.6667z"/>
<path style="fill:#ee9375; stroke:none;" d="M100.333 44.6667C100.278 44.7222 100.222 45.7778 100.667 45.3333C100.722 45.2778 100.778 44.2222 100.333 44.6667z"/>
<path style="fill:#e2622e; stroke:none;" d="M101 44L102 45L101 44z"/>
<path style="fill:#f19f88; stroke:none;" d="M102 44L103 45L102 44z"/>
<path style="fill:#f5e9c3; stroke:none;" d="M91 45L90 46L90 50C92.1747 49.4154 93.244 48.4273 95 47C93.6234 46.0886 92.5601 45.5962 91 45z"/>
<path style="fill:#e8cc6a; stroke:none;" d="M92.6667 45.3333C92.2222 45.7778 93.2778 45.7222 93.3333 45.6667C93.7778 45.2222 92.7222 45.2778 92.6667 45.3333z"/>
<path style="fill:#f7e1d3; stroke:none;" d="M98 45L98 48C98.6961 46.4463 98.6961 46.5537 98 45z"/>
<path style="fill:#e45f2c; stroke:none;" d="M99.3333 45.6667C99.2778 45.7222 99.2222 46.7778 99.6667 46.3333C99.7222 46.2778 99.7778 45.2222 99.3333 45.6667z"/>
<path style="fill:#3dd119; stroke:none;" d="M59 46L60 47L59 46z"/>
<path style="fill:#0bd77a; stroke:none;" d="M58 49C49.2422 47.3324 53.5418 57.0121 57.0579 60.7863C60.4762 64.4556 65.4913 63.4729 70 64C70 62.2032 69.9857 62.4785 69 61C70.7968 61 70.5215 60.9857 72 60C70.1188 56.8115 61.3851 45.7919 58 49z"/>
<path style="fill:#e9d27d; stroke:none;" d="M87.6667 47.3333C87.2222 47.7778 88.2778 47.7222 88.3333 47.6667C88.7778 47.2222 87.7222 47.2778 87.6667 47.3333z"/>
<path style="fill:#efa687; stroke:none;" d="M99 47L100 48L99 47z"/>
<path style="fill:#bef4db; stroke:none;" d="M53 48L54 49L53 48z"/>
<path style="fill:#eca580; stroke:none;" d="M98 48L98 51C98.6961 49.4463 98.6961 49.5537 98 48z"/>
<path style="fill:#40d745; stroke:none;" d="M62 49L63 50L62 49z"/>
<path style="fill:#b3f3d5; stroke:none;" d="M51.3333 50.6667C51.2778 50.7222 51.2222 51.7778 51.6667 51.3333C51.7222 51.2778 51.7778 50.2222 51.3333 50.6667z"/>
<path style="fill:#ebe383; stroke:none;" d="M84 50L85 51L84 50z"/>
<path style="fill:#dee143; stroke:none;" d="M80.3333 51.6667C80.2778 51.7222 80.2222 52.7778 80.6667 52.3333C80.7222 52.2778 80.7778 51.2222 80.3333 51.6667z"/>
<path style="fill:#ece48a; stroke:none;" d="M81.6667 51.3333C81.2222 51.7778 82.2778 51.7222 82.3333 51.6667C82.7778 51.2222 81.7222 51.2778 81.6667 51.3333z"/>
<path style="fill:#8ddc43; stroke:none;" d="M78 52C77.8159 54.1107 77.7618 55.9053 78 58C79.2022 55.5957 79.3363 54.3141 78 52z"/>
<path style="fill:#b3f1f1; stroke:none;" d="M28 53C30.0521 53.8742 31.7472 53.9528 34 54C31.9479 53.1258 30.2528 53.0472 28 53z"/>
<path style="fill:#0bd8a6; stroke:none;" d="M51 54C52.1394 55.0154 52.6116 55.3087 54 56C54 54.2032 53.9857 54.4785 53 53L51 54z"/>
<path style="fill:#a0d400; stroke:none;" d="M80 53L81 54L80 53z"/>
<path style="fill:#f7f8d8; stroke:none;" d="M81.6667 53.3333C81.2222 53.7778 82.2778 53.7222 82.3333 53.6667C82.7778 53.2222 81.7222 53.2778 81.6667 53.3333z"/>
<path style="fill:#9ee1f1; stroke:none;" d="M25 54L26 55L25 54z"/>
<path style="fill:#0b8ad7; stroke:none;" d="M23 63C23.7165 62.1756 24.563 60.8795 25.5093 60.2847C32.3694 55.9727 31.866 65.1365 34.179 68.4552C37.6553 73.4432 41.6176 74.0159 42 81C48.2218 81.6253 55.0811 81.0514 61 79C58.842 78.1894 56.3713 78.4589 54.2847 77.3974C50.864 75.6573 47.7336 71.9069 45.3287 68.9992C41.7633 64.6884 39.8341 58.7567 34.9846 55.6034C28.5126 51.3951 21.4733 55.597 23 63z"/>
<path style="fill:#0bc4d8; stroke:none;" d="M34 54C40.1924 62.9039 47.3206 79.6994 60 73C56.7507 67.4672 47.2289 54.4561 40 59C38.5975 55.8166 37.4091 54.734 34 54z"/>
<path style="fill:#93eee7; stroke:none;" d="M37.6667 54.3333C37.2222 54.7778 38.2778 54.7222 38.3333 54.6667C38.7778 54.2222 37.7222 54.2778 37.6667 54.3333z"/>
<path style="fill:#d6f7f5; stroke:none;" d="M39 54C41.0521 54.8742 42.7472 54.9528 45 55C42.9479 54.1258 41.2528 54.0472 39 54z"/>
<path style="fill:#c1e970; stroke:none;" d="M80 54L81 55L80 54z"/>
<path style="fill:#b6db19; stroke:none;" d="M81 54L82 55L81 54z"/>
<path style="fill:#d9e765; stroke:none;" d="M82 54L83 55L82 54z"/>
<path style="fill:#b1ebf3; stroke:none;" d="M23 55L24 56L23 55z"/>
<path style="fill:#0bd7c7; stroke:none;" d="M39 55L40 59C49.5424 55.0865 55.9098 71.6823 64 74C61.4916 70.6352 60.6 68.2064 61 64C57.9037 61.3407 55.5451 58.1814 53 55C48.3266 55.667 43.7064 55.013 39 55z"/>
<path style="fill:#60e5db; stroke:none;" d="M47 55C48.506 55.683 49.3148 55.8259 51 56C49.494 55.317 48.6852 55.1741 47 55z"/>
<path style="fill:#bfe768; stroke:none;" d="M81 55L82 56L81 55z"/>
<path style="fill:#aed500; stroke:none;" d="M82 55L83 56L82 55z"/>
<path style="fill:#97e1ef; stroke:none;" d="M22 56L23 57L22 56z"/>
<path style="fill:#dce350; stroke:none;" d="M82.6667 56.3333C82.2222 56.7777 83.2778 56.7222 83.3333 56.6667C83.7778 56.2222 82.7222 56.2778 82.6667 56.3333z"/>
<path style="fill:#b4d500; stroke:none;" d="M83 57L84 58L83 57z"/>
<path style="fill:#56c8e5; stroke:none;" d="M21 58L21 61C21.6961 59.4463 21.6961 59.5537 21 58z"/>
<path style="fill:#49aae3; stroke:none;" d="M24 63L23 61C22.3782 62.9433 22.5642 63.949 23 66C25.0558 65.5125 26.1441 65.0481 28 64L26 61C28.2974 61.6735 28.7741 61.9653 30 64C31.6076 62.5502 32.0643 61.9485 33 60C28.865 60.1477 24.7955 55.4423 24 63z"/>
<path style="fill:#58e082; stroke:none;" d="M71 58L72 59L71 58z"/>
<path style="fill:#96de57; stroke:none;" d="M72 58C73.769 58.7789 75.0359 58.9124 77 59C75.231 58.2211 73.9641 58.0876 72 58z"/>
<path style="fill:#d2f2ae; stroke:none;" d="M79 58L80 59L79 58z"/>
<path style="fill:#e1e86f; stroke:none;" d="M83.6667 58.3333C83.2222 58.7778 84.2778 58.7222 84.3333 58.6667C84.7778 58.2222 83.7222 58.2778 83.6667 58.3333z"/>
<path style="fill:#c7db1d; stroke:none;" d="M84 59L85 60L84 59z"/>
<path style="fill:#d1ecf8; stroke:none;" d="M31 60L32 61L31 60z"/>
<path style="fill:#aff2d2; stroke:none;" d="M71.3333 60.6667C71.2778 60.7222 71.2222 61.7778 71.6667 61.3333C71.7222 61.2778 71.7778 60.2222 71.3333 60.6667z"/>
<path style="fill:#e8f1a1; stroke:none;" d="M84 60C85.4498 61.6076 86.0515 62.0643 88 63C86.5502 61.3924 85.9486 60.9357 84 60z"/>
<path style="fill:#c4eef6; stroke:none;" d="M21 61C20.52 63.3596 20.4808 64.6626 21 67C22.5162 64.6528 22.3872 63.44 21 61z"/>
<path style="fill:#8ccdf0; stroke:none;" d="M26 61L26 63L28 63C27.4549 61.3648 27.6352 61.5451 26 61z"/>
<path style="fill:#ffffff; stroke:none;" d="M27 61C27.5451 62.6352 27.3648 62.4549 29 63L29 61L27 61z"/>
<path style="fill:#64b8e9; stroke:none;" d="M29 61L29 65C29.7102 63.2405 29.7102 62.7595 29 61z"/>
<path style="fill:#60e5a9; stroke:none;" d="M69.6667 61.3333C69.2222 61.7778 70.2778 61.7222 70.3333 61.6667C70.7778 61.2222 69.7222 61.2778 69.6667 61.3333z"/>
<path style="fill:#0b7ad9; stroke:none;" d="M32 62C29.6405 66.7202 26.068 67.7645 21 68C23.1991 68.9984 25.7981 69.2862 27.7917 70.7415C31.9494 73.7768 35.1783 79.3507 39 83C41.3772 82.428 43.558 82.1095 46 82C44.494 81.317 43.6852 81.1741 42 81C41.8153 73.3602 37.7893 73.1944 34.1759 67.706C33.0765 66.0361 32.8212 63.8072 32 62z"/>
<path style="fill:#a2f0cc; stroke:none;" d="M70 62L71 63L70 62z"/>
<path style="fill:#9bddf2; stroke:none;" d="M28 63C25.8851 64.5731 24.5303 65.3518 22 66L22 68C25.4661 67.808 29.4445 67.2617 28 63z"/>
<path style="fill:#91c9ef; stroke:none;" d="M31 63C30.0143 64.4785 30 64.2032 30 66C31.2892 64.5574 31.4009 64.7663 31 63z"/>
<path style="fill:#0edbab; stroke:none;" d="M60 63L65 68C65.7621 64.5676 62.9438 63.7923 60 63z"/>
<path style="fill:#91edc3; stroke:none;" d="M65.6667 63.3333C65.2222 63.7778 66.2778 63.7222 66.3333 63.6667C66.7778 63.2222 65.7222 63.2778 65.6667 63.3333z"/>
<path style="fill:#5ae4a5; stroke:none;" d="M68 63C69.1266 65.0059 69.8734 65.0059 71 63L68 63z"/>
<path style="fill:#82cdf0; stroke:none;" d="M9 65C10.8299 66.9501 12.8126 68.4524 15 70C15.9857 68.5215 16 68.7968 16 67C13.669 66.1546 11.4364 65.4512 9 65z"/>
<path style="fill:#98dbf3; stroke:none;" d="M16.6667 65.3333C16.2222 65.7778 17.2778 65.7222 17.3333 65.6667C17.7778 65.2222 16.7222 65.2778 16.6667 65.3333z"/>
<path style="fill:#3d98e3; stroke:none;" d="M29.3333 65.6667C29.2778 65.7222 29.2222 66.7778 29.6667 66.3333C29.7222 66.2778 29.7778 65.2222 29.3333 65.6667z"/>
<path style="fill:#93efe3; stroke:none;" d="M61 65C62.2483 65.6848 62.5484 65.7488 64 66C62.7516 65.3152 62.4516 65.2512 61 65z"/>
<path style="fill:#bcf4da; stroke:none;" d="M68.6667 65.3333C68.2222 65.7778 69.2778 65.7222 69.3333 65.6667C69.7778 65.2222 68.7222 65.2778 68.6667 65.3333z"/>
<path style="fill:#56bceb; stroke:none;" d="M15 66C16.2228 67.1952 16.42 67.3164 18 68C17.0198 66.2167 17.0924 66.4057 15 66z"/>
<path style="fill:#ace0f5; stroke:none;" d="M18 66L16 69L19 70C18.8259 68.3148 18.683 67.506 18 66z"/>
<path style="fill:#5be5db; stroke:none;" d="M60 66L60 69C60.6961 67.4463 60.6961 67.5537 60 66z"/>
<path style="fill:#dafbf3; stroke:none;" d="M61 69L64 67C61.8603 65.8822 61.4732 66.7492 61 69z"/>
<path style="fill:#74edcf; stroke:none;" d="M64 66C62.9644 67.1863 62.6614 67.6036 62 69C64.2508 68.5268 65.1178 68.1397 64 66z"/>
<path style="fill:#96efd8; stroke:none;" d="M66 66L67 67L66 66z"/>
<path style="fill:#c0dff7; stroke:none;" d="M11 69C12.2272 70.9697 13.1711 72.8322 14 75C15.0811 73.542 15.436 72.752 16 71C13.649 71 14.0652 70.3476 14 68C12.2032 68 12.4785 68.0143 11 69z"/>
<path style="fill:#e3f5fa; stroke:none;" d="M10 69C10.7215 71.1656 11.0817 72.7224 11 75C15.4308 74.0308 12.8188 70.4939 10 69z"/>
<path style="fill:#65b7ea; stroke:none;" d="M14 72L18 70C15.6918 69.4424 15.2436 70.0036 14 72z"/>
<path style="fill:#0a5fd8; stroke:none;" d="M17 71L17 74C22.7517 74.1623 25.7353 79.241 28 84C28.9902 81.4768 28.6169 79.6418 28 77C31.2299 80.2365 31.8945 83.5139 32 88C33.7833 87.0198 33.5943 87.0924 34 85C37.064 87.5567 38.6139 90.272 40 94L44 92L43 96L48 96L47 99C49.0463 100.206 50.4104 101.248 52 103C49.7683 102.637 48.2317 102.637 46 103L46 99L41 101C45.4694 105.356 51.1807 106.605 55 101C55.9857 102.479 56 102.203 56 104L59 103C57.9241 96.3011 53.9971 95.9501 49 92.4506C45.1188 89.7327 42.257 86.2084 38 84C38.9857 82.5215 39 82.7968 39 81C33.1793 78.8866 32.3421 72.0093 26.8966 69.7431C23.2838 68.2395 20.3911 70.241 17 71z"/>
<path style="fill:#94ede5; stroke:none;" d="M61 69L62 70L61 69z"/>
<path style="fill:#aae8ec; stroke:none;" d="M65 69L65 74C66.5743 71.9077 67.0182 70.8151 65 69z"/>
<path style="fill:#41d9dd; stroke:none;" d="M67 69L66 75C68.1099 72.9371 69.4167 71.2281 67 69z"/>
<path style="fill:#88aeec; stroke:none;" d="M16 70L16 73C17.0154 71.8607 17.3087 71.3884 18 70L16 70z"/>
<path style="fill:#5fb8e9; stroke:none;" d="M18 70L18 72C19.6352 71.4549 19.4549 71.6352 20 70L18 70z"/>
<path style="fill:#31e1d4; stroke:none;" d="M61.3333 70.6667C61.2778 70.7222 61.2222 71.7778 61.6667 71.3333C61.7222 71.2778 61.7778 70.2222 61.3333 70.6667z"/>
<path style="fill:#7bede5; stroke:none;" d="M62 70L62 73C63.0154 71.8607 63.3087 71.3884 64 70L62 70z"/>
<path style="fill:#50c9b1; stroke:none;" d="M64.6667 70.3333C64.2222 70.7778 65.2778 70.7222 65.3333 70.6667C65.7778 70.2222 64.7222 70.2778 64.6667 70.3333z"/>
<path style="fill:#70deee; stroke:none;" d="M67.3333 70.6667C67.2777 70.7223 67.2222 71.7778 67.6667 71.3333C67.7222 71.2778 67.7778 70.2222 67.3333 70.6667z"/>
<path style="fill:#74d3bd; stroke:none;" d="M63 71C63 72.7968 63.0143 72.5215 64 74C65.0154 72.8607 65.3087 72.3884 66 71L63 71z"/>
<path style="fill:#b6bdf5; stroke:none;" d="M6 72L5 74L7 74C7 72.1468 7.29969 72.6498 6 72z"/>
<path style="fill:#dce5f9; stroke:none;" d="M9 72L9 74C10.6352 73.4549 10.4549 73.6352 11 72L9 72z"/>
<path style="fill:#90e9e4; stroke:none;" d="M81 72C82.5061 72.683 83.3148 72.8259 85 73C83.494 72.317 82.6852 72.1741 81 72z"/>
<path style="fill:#2e67df; stroke:none;" d="M10 73L10 76C11.0154 74.8606 11.3087 74.3884 12 73L10 73z"/>
<path style="fill:#628de8; stroke:none;" d="M15.6667 73.3333C15.2222 73.7778 16.2778 73.7222 16.3333 73.6667C16.7778 73.2222 15.7222 73.2778 15.6667 73.3333z"/>
<path style="fill:#0b4ed7; stroke:none;" d="M13 76C16.188 82.8379 22.7271 88.16 27.4869 93.9853C29.8241 96.8457 32.0412 100.118 36.0039 100.667C40.0752 101.232 44.3378 98.4406 48 97C46.231 96.2211 44.9641 96.0876 43 96L44 92C42.3385 92.6128 41.5167 93.0427 40 94C38.8479 89.049 37.0497 84.0189 32 88C31.9605 83.587 31.925 79.6037 28 77L29 84C24.8758 77.2936 21.1694 71.4026 13 76z"/>
<path style="fill:#b7ecf6; stroke:none;" d="M59.6667 73.3333C59.2222 73.7778 60.2778 73.7222 60.3333 73.6667C60.7778 73.2222 59.7222 73.2778 59.6667 73.3333z"/>
<path style="fill:#abebe8; stroke:none;" d="M77 73L78 74L77 73z"/>
<path style="fill:#0bd8c8; stroke:none;" d="M87 97L87 101C89.2157 101.148 90.3918 101.437 92 100C93.7227 100.934 95.1062 101.535 97 102C96.5363 104.172 95.8945 105.958 95 108L100 109C99.1632 105.701 99.255 103.312 100 100C94.508 97.578 92.102 93.6482 88.1744 89.3696C84.1711 85.0086 79.8661 81.8271 78 76L86 74C84.5733 73.4027 83.5429 73.0721 81.9414 73.0741C66.7266 73.0932 77.551 97.153 87 97z"/>
<path style="fill:#59d6d0; stroke:none;" d="M84 74C85.0777 75.8476 84.9491 75.9662 84 78C86.4758 76.6609 87.52 75.4123 89 73L84 74z"/>
<path style="fill:#d6dbf9; stroke:none;" d="M4 74L4 76C5.63516 75.4549 5.45495 75.6352 6 74L4 74z"/>
<path style="fill:#8aacec; stroke:none;" d="M9 74L10 75L9 74z"/>
<path style="fill:#40d3e1; stroke:none;" d="M55.6667 74.3333C55.2222 74.7778 56.2778 74.7222 56.3333 74.6667C56.7778 74.2222 55.7222 74.2778 55.6667 74.3333z"/>
<path style="fill:#5ed9e6; stroke:none;" d="M58 74L59 75L58 74z"/>
<path style="fill:#fffffe; stroke:none;" d="M58 75C60.3079 76.7595 62.0923 76.9172 65 77C62.5973 74.7594 61.2204 74.3857 58 75z"/>
<path style="fill:#b1ecf7; stroke:none;" d="M62 74C63.1393 75.0154 63.6116 75.3087 65 76C64.0198 74.2167 64.0924 74.4057 62 74z"/>
<path style="fill:#79e4e7; stroke:none;" d="M65.3333 74.6667C65.2778 74.7222 65.2222 75.7778 65.6667 75.3333C65.7222 75.2778 65.7778 74.2222 65.3333 74.6667z"/>
<path style="fill:#9be8ea; stroke:none;" d="M82 74C80.8699 75.4 79.7824 76.416 79 78L86 76C84.542 74.9189 83.752 74.5639 82 74z"/>
<path style="fill:#19d8d8; stroke:none;" d="M88 74C88.0313 75.8318 87.9205 75.5587 89 77C88.7488 75.5484 88.6848 75.2483 88 74z"/>
<path style="fill:#53dcdb; stroke:none;" d="M89 74L89 77C89.6961 75.4463 89.6961 75.5537 89 74z"/>
<path style="fill:#0b2cd7; stroke:none;" d="M9 75C7.2115 76.4215 6.29425 76.6974 4 77C6.10156 83.2447 10.9762 90.7359 16 95C15.3872 93.3385 14.9573 92.5167 14 91C19.9495 93.8057 22.0778 99.4239 25 105C26.3142 104.232 26.2321 104.314 27 103L29 103C30.9888 105.097 33.21 104.326 36 104C34.8431 100.476 32.0881 98.7176 29.7446 95.9066C23.841 88.8255 17.713 78.7118 9 75z"/>
<path style="fill:#6f98e9; stroke:none;" d="M11 75C12.506 75.683 13.3148 75.8259 15 76C13.494 75.317 12.6852 75.1741 11 75z"/>
<path style="fill:#ffffff; stroke:none;" d="M54 75L54 78C55.0154 76.8607 55.3087 76.3884 56 75L54 75z"/>
<path style="fill:#d0eff7; stroke:none;" d="M56.6667 75.3333C56.2222 75.7778 57.2778 75.7222 57.3333 75.6667C57.7778 75.2222 56.7222 75.2778 56.6667 75.3333z"/>
<path style="fill:#b3e3de; stroke:none;" d="M73 75L74 76L73 75z"/>
<path style="fill:#d6f3f4; stroke:none;" d="M80.6667 75.3333C80.2222 75.7778 81.2778 75.7222 81.3333 75.6667C81.7778 75.2222 80.7222 75.2778 80.6667 75.3333z"/>
<path style="fill:#abb6f2; stroke:none;" d="M3 76C4.76904 76.7789 6.03593 76.9124 8 77C6.23096 76.2211 4.96407 76.0876 3 76z"/>
<path style="fill:#5970e5; stroke:none;" d="M8 76L9 77L8 76z"/>
<path style="fill:#87baeb; stroke:none;" d="M53.3333 76.6667C53.2778 76.7222 53.2222 77.7778 53.6667 77.3333C53.7222 77.2778 53.7778 76.2222 53.3333 76.6667z"/>
<path style="fill:#5cb3e0; stroke:none;" d="M55.6667 76.3333C55.2222 76.7778 56.2778 76.7222 56.3333 76.6667C56.7778 76.2222 55.7222 76.2778 55.6667 76.3333z"/>
<path style="fill:#77bde9; stroke:none;" d="M57 76C59.3079 77.7595 61.0923 77.9172 64 78C61.7485 76.9115 59.4652 76.4813 57 76z"/>
<path style="fill:#bef2f3; stroke:none;" d="M64 77C65.7885 78.4215 66.7058 78.6974 69 79C67.1284 77.2774 66.5361 77.0333 64 77z"/>
<path style="fill:#0bbcc1; stroke:none;" d="M73 76L72 83C74.2932 80.9974 74.1401 78.734 73 76z"/>
<path style="fill:#38d4dc; stroke:none;" d="M78 76C78.6393 79.3096 79.7099 81.5234 82 84C82.9857 82.5215 83 82.7968 83 81L78 76z"/>
<path style="fill:#a5e8eb; stroke:none;" d="M86 79L90 78C87.8582 76.8506 87.3884 77.0228 86 79z"/>
<path style="fill:#0e09d6; stroke:none;" d="M3 77C3.02095 84.2997 5.58278 86.9525 9.1466 93C12.3753 98.4788 11.8278 100.915 19 101C20.0989 104.321 21.5902 104.737 25 105C24.1898 102.778 23.2614 101.01 22 99C18.7618 101.024 8.95145 99.2719 14 95C12.0456 88.4027 7.56924 82.0918 3 77z"/>
<path style="fill:#abd4f1; stroke:none;" d="M55 79C56.58 78.3164 56.7772 78.1952 58 77C55.9076 77.4057 55.9802 77.2167 55 79z"/>
<path style="fill:#ceece7; stroke:none;" d="M71 77C71.5451 78.6352 71.3648 78.4549 73 79L73 77L71 77z"/>
<path style="fill:#36d2de; stroke:none;" d="M80 77L81 79C82.6352 78.4549 82.4549 78.6352 83 77L80 77z"/>
<path style="fill:#f4f7f3; stroke:none;" d="M82 78C83.5061 78.683 84.3148 78.8259 86 79C84.2654 77.9499 84.0685 77.9538 82 78z"/>
<path style="fill:#4fd5df; stroke:none;" d="M90.3333 77.6667C90.2778 77.7222 90.2222 78.7778 90.6667 78.3333C90.7222 78.2778 90.7778 77.2222 90.3333 77.6667z"/>
<path style="fill:#47a0e2; stroke:none;" d="M54 78L55 79L54 78z"/>
<path style="fill:#9ccfee; stroke:none;" d="M61 78L62 79L61 78z"/>
<path style="fill:#ffffff; stroke:none;" d="M56 81C56.4721 82.4162 56.8137 82.8137 58 84C59.8652 83.3244 59.8632 82.9043 61 84L65 81L65 78C61.7921 78.5706 59.0112 79.7722 56 81z"/>
<path style="fill:#8ad0d9; stroke:none;" d="M69 78L70 79L69 78z"/>
<path style="fill:#0bc4d8; stroke:none;" d="M70 78L69 81L67 80C65.5423 81.3212 62.703 82.7571 62.6165 84.973C62.5097 87.7088 65.6684 90.5318 67.419 92.3125C69.1958 94.1199 71.4527 95.3448 73.125 97.2446C77.2569 101.939 80.6584 108.456 87 110C85.063 107.32 84.24 105.304 84 102C86.4768 103.295 88.328 105.134 91 106L91 101L87 101L87 97L84 98C81.1372 92.3921 76.9072 88.1383 75 82L72 83C72.3233 80.9676 72.3401 80.0182 72 78L70 78z"/>
<path style="fill:#18cada; stroke:none;" d="M80 78C81.5346 80.7213 83.1485 81.7166 86 83L88 78C84.9338 78.8519 83.038 78.9648 80 78z"/>
<path style="fill:#79dfe7; stroke:none;" d="M89 78L88 80L90 80C90 78.1468 90.2997 78.6498 89 78z"/>
<path style="fill:#b9def4; stroke:none;" d="M59 79L60 80L59 79z"/>
<path style="fill:#90f1ea; stroke:none;" d="M64 79C65.5061 79.683 66.3148 79.8259 68 80C66.494 79.317 65.6852 79.1741 64 79z"/>
<path style="fill:#43b8a1; stroke:none;" d="M68 79L68 81C69.6352 80.4549 69.4549 80.6352 70 79L68 79z"/>
<path style="fill:#a5eaee; stroke:none;" d="M83 79L84 80L83 79z"/>
<path style="fill:#63b4e1; stroke:none;" d="M49 80L50 81L49 80z"/>
<path style="fill:#9fd1ee; stroke:none;" d="M52 83C53.0154 81.8607 53.3087 81.3884 54 80C51.7966 80.9939 51.9524 80.6699 52 83z"/>
<path style="fill:#6bb9e8; stroke:none;" d="M54 80L54 82L56 82C55.4549 80.3648 55.6352 80.5451 54 80z"/>
<path style="fill:#74bde9; stroke:none;" d="M57 80L58 81L57 80z"/>
<path style="fill:#87b2ed; stroke:none;" d="M65.6667 80.3333C65.2222 80.7778 66.2778 80.7222 66.3333 80.6667C66.7778 80.2222 65.7222 80.2778 65.6667 80.3333z"/>
<path style="fill:#92e2ee; stroke:none;" d="M86 80C86.168 82.4025 86.1969 83.4602 88 85C87.5196 83.0404 87.0624 81.6932 86 80z"/>
<path style="fill:#edeb7b; stroke:none;" d="M103 81C105.052 81.8742 106.747 81.9528 109 82C106.776 80.4314 105.706 80.5157 103 81z"/>
<path style="fill:#abd4e7; stroke:none;" d="M48 81L49 82L48 81z"/>
<path style="fill:#ffffff; stroke:none;" d="M44 83C47.0248 84.5224 53.1587 84.9258 54 81C52.8046 81.5977 53.0226 81.4661 52 83C49.1651 81.1778 47.1088 81.8658 44 83z"/>
<path style="fill:#8ddedd; stroke:none;" d="M64 81C65.2484 81.6848 65.5484 81.7488 67 82C65.7517 81.3152 65.4516 81.2512 64 81z"/>
<path style="fill:#a98dec; stroke:none;" d="M2.33333 82.6667C2.27777 82.7222 2.22223 83.7778 2.66667 83.3333C2.72222 83.2778 2.77778 82.2222 2.33333 82.6667z"/>
<path style="fill:#5eb3e5; stroke:none;" d="M40 84C41.58 83.3164 41.7772 83.1952 43 82C40.9076 82.4057 40.9802 82.2167 40 84z"/>
<path style="fill:#e7f0e9; stroke:none;" d="M42 84C43.58 83.3164 43.7772 83.1952 45 82C43.42 82.6836 43.2228 82.8048 42 84z"/>
<path style="fill:#b4dcf2; stroke:none;" d="M54 82L55 83L54 82z"/>
<path style="fill:#0b8cd8; stroke:none;" d="M52 84C55.5711 92.4841 61.2474 100.316 71 98C70.9034 104.382 78.1947 108.94 84 110C76.0192 99.2072 65.8264 91.67 57 82L52 84z"/>
<path style="fill:#d3ccee; stroke:none;" d="M60.3333 82.6667C60.2778 82.7222 60.2222 83.7778 60.6667 83.3333C60.7222 83.2778 60.7778 82.2222 60.3333 82.6667z"/>
<path style="fill:#b8dec2; stroke:none;" d="M62 82L63 83L62 82z"/>
<path style="fill:#60e3db; stroke:none;" d="M82 84C83.58 83.3164 83.7772 83.1952 85 82C83.42 82.6836 83.2228 82.8048 82 84z"/>
<path style="fill:#d5db1b; stroke:none;" d="M101 87L105 83C101.954 82.3117 101.451 84.2417 101 87z"/>
<path style="fill:#add809; stroke:none;" d="M105 82C107.013 83.2247 108.659 83.6453 111 84C108.943 82.4181 107.612 82.1744 105 82z"/>
<path style="fill:#f5f6cc; stroke:none;" d="M110 82C110.545 83.6352 110.365 83.4549 112 84L112 82L110 82z"/>
<path style="fill:#9ed2ef; stroke:none;" d="M38.6667 83.3333C38.2222 83.7778 39.2778 83.7222 39.3333 83.6667C39.7778 83.2222 38.7222 83.2778 38.6667 83.3333z"/>
<path style="fill:#90c8e2; stroke:none;" d="M47.3333 83.6667C47.2778 83.7222 47.2222 84.7778 47.6667 84.3333C47.7222 84.2778 47.7778 83.2222 47.3333 83.6667z"/>
<path style="fill:#0b7ad8; stroke:none;" d="M48 83L48 85C44.9592 84.1004 42.1691 84.008 39 84C41.7474 86.9717 44.6725 90.1205 48 92.4506C52.2937 95.4574 61.2906 97.5937 56 104L56 101L54 101C56.0594 106.103 60.5662 104.29 65 103C67.2474 107.083 69.648 106.915 73 104C71.9787 101.892 71.3658 100.296 71 98C68.5208 98.4521 65.7583 99.2486 63.3395 98.1281C56.7746 95.087 55.0826 86.0263 48 83z"/>
<path style="fill:#6aace1; stroke:none;" d="M49 83L50 84L49 83z"/>
<path style="fill:#a4d5f0; stroke:none;" d="M57 83L58 84L57 83z"/>
<path style="fill:#8486ec; stroke:none;" d="M59 83L60 84L59 83z"/>
<path style="fill:#fffcff; stroke:none;" d="M84.6667 83.3333C84.2222 83.7778 85.2778 83.7222 85.3333 83.6667C85.7778 83.2222 84.7222 83.2778 84.6667 83.3333z"/>
<path style="fill:#b2d622; stroke:none;" d="M103 83C101.359 90.2694 107.613 89.868 110 84L103 83z"/>
<path style="fill:#c5df55; stroke:none;" d="M105 83C106.248 83.6848 106.548 83.7488 108 84C106.752 83.3152 106.452 83.2512 105 83z"/>
<path style="fill:#0065d5; stroke:none;" d="M58.6667 84.3333C58.2222 84.7778 59.2778 84.7222 59.3333 84.6667C59.7778 84.2222 58.7222 84.2778 58.6667 84.3333z"/>
<path style="fill:#238bb8; stroke:none;" d="M60.6667 84.3333C60.2222 84.7778 61.2778 84.7222 61.3333 84.6667C61.7778 84.2222 60.7222 84.2778 60.6667 84.3333z"/>
<path style="fill:#89ece3; stroke:none;" d="M83.6667 84.3333C83.2222 84.7778 84.2778 84.7222 84.3333 84.6667C84.7778 84.2222 83.7222 84.2778 83.6667 84.3333z"/>
<path style="fill:#0bd7a4; stroke:none;" d="M85 84L85 88C91.0566 91.2526 92.9585 97.8826 100 100C97.2502 107.288 101.161 109.594 108 110C110.88 100.7 102.743 99.7919 97.1744 94.7253C93.9408 91.783 92.098 87.7506 90 84C88.1501 84.2021 86.8499 84.2021 85 84z"/>
<path style="fill:#49e1bb; stroke:none;" d="M88 84L89 85L88 84z"/>
<path style="fill:#adf1e1; stroke:none;" d="M90 84L91 85L90 84z"/>
<path style="fill:#4de29a; stroke:none;" d="M91 84L92 85L91 84z"/>
<path style="fill:#0cd77a; stroke:none;" d="M90 85C91.977 88.3068 93.4799 92.015 96.3048 94.7253C100.461 98.713 105.47 100.106 109 105C110.454 101.276 109.082 96.9733 109 93C107.604 93.6614 107.186 93.9644 106 95C101.872 89.134 97.6817 83.2571 90 85z"/>
<path style="fill:#79df60; stroke:none;" d="M97 84L98 85L97 84z"/>
<path style="fill:#c4eb93; stroke:none;" d="M98 84L99 85L98 84z"/>
<path style="fill:#f6f3d5; stroke:none;" d="M100 84L100 87C100.696 85.4463 100.696 85.5537 100 84z"/>
<path style="fill:#7cd903; stroke:none;" d="M110 84C109.299 88.4353 107.353 90.1113 103 91C104.33 92.7525 105.247 93.6697 107 95C109.46 91.3762 111.795 88.4091 110 84z"/>
<path style="fill:#bcdc21; stroke:none;" d="M111.333 84.6667C111.278 84.7222 111.222 85.7778 111.667 85.3333C111.722 85.2778 111.778 84.2222 111.333 84.6667z"/>
<path style="fill:#4f0bd5; stroke:none;" d="M3 85C3.22975 87.7376 3.29298 90.2671 3 93C5.10589 93.6438 6.79512 93.9059 9 94L10 100C12.3458 93.973 7.1423 88.8469 3 85z"/>
<path style="fill:#7bd600; stroke:none;" d="M98 85C98.6836 86.58 98.8048 86.7772 100 88C99.3164 86.42 99.1952 86.2228 98 85z"/>
<path style="fill:#c1ec8d; stroke:none;" d="M99 85L100 86L99 85z"/>
<path style="fill:#afe562; stroke:none;" d="M109 85L108 90C109.475 88.0648 109.791 87.3073 109 85z"/>
<path style="fill:#a7e24c; stroke:none;" d="M111 86L111 89C111.696 87.4463 111.696 87.5537 111 86z"/>
<path style="fill:#e8e889; stroke:none;" d="M100 87C101.45 88.6076 102.051 89.0643 104 90C102.55 88.3924 101.949 87.9357 100 87z"/>
<path style="fill:#a886ec; stroke:none;" d="M3 88L3 91C3.6961 89.4463 3.6961 89.5537 3 88z"/>
<path style="fill:#77d600; stroke:none;" d="M100 88L101 89L100 88z"/>
<path style="fill:#7ed800; stroke:none;" d="M101 89L102 90L101 89z"/>
<path style="fill:#bae87c; stroke:none;" d="M104 89C104.98 90.7833 104.908 90.5943 107 91C105.861 89.9846 105.388 89.6913 104 89z"/>
<path style="fill:#e4e9a1; stroke:none;" d="M107 89L108 90L107 89z"/>
<path style="fill:#ffffff; stroke:none;" d="M111 89C109.799 94.0439 111.216 99.109 110.178 104C109.558 106.923 107.512 109.485 106 112L112 112C112 105.032 113.704 95.4448 111 89z"/>
<path style="fill:#8ede28; stroke:none;" d="M102.667 90.3333C102.222 90.7778 103.278 90.7222 103.333 90.6667C103.778 90.2222 102.722 90.2778 102.667 90.3333z"/>
<path style="fill:#98e040; stroke:none;" d="M110 90L111 91L110 90z"/>
<path style="fill:#0c1ed2; stroke:none;" d="M14 91L16 95C13.9927 95.0989 10.8268 96.554 13.6227 98.8403C15.4369 100.324 18.7854 100.452 21 101C21.4207 95.6919 19.1232 92.4542 14 91z"/>
<path style="fill:#7744da; stroke:none;" d="M1.66667 92.3333C1.22222 92.7778 2.27778 92.7222 2.33333 92.6667C2.77778 92.2222 1.72223 92.2778 1.66667 92.3333z"/>
<path style="fill:#3dd739; stroke:none;" d="M108 92L109 93L108 92z"/>
<path style="fill:#aae760; stroke:none;" d="M109 92L109 95C109.696 93.4463 109.696 93.5537 109 92z"/>
<path style="fill:#997cd5; stroke:none;" d="M3.33333 93.6667C3.27778 93.7222 3.22222 94.7778 3.66667 94.3333C3.72222 94.2778 3.77778 93.2222 3.33333 93.6667z"/>
<path style="fill:#330c8d; stroke:none;" d="M3 101C4.63516 100.455 4.45495 100.635 5 99C9.46596 103.223 11.8166 107.075 18 109C15.4939 103.522 10.5302 99.7249 9 94C3.83698 94.286 1.88736 95.7199 3 101z"/>
<path style="fill:#bda7ec; stroke:none;" d="M1 95L2 96L1 95z"/>
<path style="fill:#d0f7e5; stroke:none;" d="M109 95L109 98C109.696 96.4463 109.696 96.5537 109 95z"/>
<path style="fill:#3800ae; stroke:none;" d="M1 96C1.2065 98.4344 2.35803 103.625 5 100C2.23618 100 2.59835 97.8507 1 96z"/>
<path style="fill:#d6c7f4; stroke:none;" d="M0.333333 97.6667C0.27778 97.7222 0.222221 98.7778 0.666667 98.3333C0.722223 98.2778 0.777778 97.2222 0.333333 97.6667z"/>
<path style="fill:#7ea1ec; stroke:none;" d="M46.6667 97.3333C46.2222 97.7778 47.2778 97.7222 47.3333 97.6667C47.7778 97.2222 46.7222 97.2778 46.6667 97.3333z"/>
<path style="fill:#5c95e5; stroke:none;" d="M40 102L46 99C43.0027 98.4044 41.5499 99.4564 40 102z"/>
<path style="fill:#aac6ef; stroke:none;" d="M46 98C46.168 100.403 46.1969 101.46 48 103C48.1261 101.286 48.3023 100.567 49 99L46 98z"/>
<path style="fill:#3cdf94; stroke:none;" d="M109.333 98.6667C109.278 98.7222 109.222 99.7778 109.667 99.3333C109.722 99.2778 109.778 98.2222 109.333 98.6667z"/>
<path style="fill:#ffffff; stroke:none;" d="M0 99L0 112L22 112C17.7672 108.796 12.3384 106.084 7 107C6.63171 103.777 5.0872 103.494 2 104C1.61368 101.857 1.25488 100.75 0 99z"/>
<path style="fill:#0f032c; stroke:none;" d="M5 99C4.31643 100.58 4.19518 100.777 3 102C4.69319 103.062 6.04041 103.52 8 104C7.25073 101.746 6.65594 100.686 5 99z"/>
<path style="fill:#6633cb; stroke:none;" d="M1 100L2 101L1 100z"/>
<path style="fill:#f5f9fd; stroke:none;" d="M47 100L47 102L49 102L49 100L47 100z"/>
<path style="fill:#87acec; stroke:none;" d="M49.3333 100.667C49.2778 100.722 49.2222 101.778 49.6667 101.333C49.7222 101.278 49.7778 100.222 49.3333 100.667z"/>
<path style="fill:#6fdee9; stroke:none;" d="M92.6667 100.333C92.2222 100.778 93.2778 100.722 93.3333 100.667C93.7778 100.222 92.7222 100.278 92.6667 100.333z"/>
<path style="fill:#1f0066; stroke:none;" d="M7.66667 101.333C7.22222 101.778 8.27778 101.722 8.33333 101.667C8.77778 101.222 7.72222 101.278 7.66667 101.333z"/>
<path style="fill:#0f0abe; stroke:none;" d="M14 101C17.2099 108.012 18.8482 107.74 26 108C25.1368 103.972 20.6311 105.143 19 101L14 101z"/>
<path style="fill:#0a43c8; stroke:none;" d="M36 101C34.7741 103.035 34.2974 103.326 32 104C33.2524 107.282 34.5749 108.272 38 109C39.7173 107.16 40.5656 106.651 43 106C41.6447 103.289 40.4046 103.443 38 102L39 101L36 101z"/>
<path style="fill:#4353db; stroke:none;" d="M38 103L41 103L40 101C38.3648 101.545 38.5451 101.365 38 103z"/>
<path style="fill:#487fe2; stroke:none;" d="M50 101L50 103L52 103L52 101L50 101z"/>
<path style="fill:#ffffff; stroke:none;" d="M92 101L91 107C88.6407 105.271 86.5852 103.352 84 102C84.2341 106.228 85.0462 108.254 89 110C82.2845 111.677 77.0817 107.213 71 105L70 108C66.7119 105.922 63.7274 104.166 60 103C58.457 104.267 57.9522 104.489 56 105L56 108C51.7623 107.002 46.4368 106.454 42.0895 106.659C38.6411 106.821 36.6397 108.618 33 108C30.6129 111.236 26.6301 109.467 23 109C26.3979 114.241 37.3469 112 43 112L83 112C90.1308 112 98.132 113.03 105 111C100.536 108.855 95.6174 109.697 92 106C93.6865 106.218 94.3161 106.224 96 106C94.8382 103.8 94.0227 102.403 92 101z"/>
<path style="fill:#96edc4; stroke:none;" d="M110 101L110 105C110.71 103.241 110.71 102.759 110 101z"/>
<path style="fill:#b8aad5; stroke:none;" d="M2.33333 102.667C2.27778 102.722 2.22222 103.778 2.66667 103.333C2.72222 103.278 2.77778 102.222 2.33333 102.667z"/>
<path style="fill:#8f7db0; stroke:none;" d="M8 102L9 103L8 102z"/>
<path style="fill:#4e76e2; stroke:none;" d="M41 102C41.8014 104.104 42.4966 105.337 44 107C43.8958 104.139 43.4773 103.451 41 102z"/>
<path style="fill:#71dee9; stroke:none;" d="M86 102L87 103L86 102z"/>
<path style="fill:#8ee3ec; stroke:none;" d="M91.3333 102.667C91.2778 102.722 91.2222 103.778 91.6667 103.333C91.7222 103.278 91.7778 102.222 91.3333 102.667z"/>
<path style="fill:#a3e8ef; stroke:none;" d="M94.3333 102.667C94.2778 102.722 94.2222 103.778 94.6667 103.333C94.7222 103.278 94.7778 102.222 94.3333 102.667z"/>
<path style="fill:#32cfde; stroke:none;" d="M95.3333 102.667C95.2778 102.722 95.2222 103.778 95.6667 103.333C95.7222 103.278 95.7778 102.222 95.3333 102.667z"/>
<path style="fill:#ddfaf7; stroke:none;" d="M96.3333 102.667C96.2778 102.722 96.2222 103.778 96.6667 103.333C96.7222 103.278 96.7778 102.222 96.3333 102.667z"/>
<path style="fill:#756d87; stroke:none;" d="M5 103L6 104L5 103z"/>
<path style="fill:#ffffff; stroke:none;" d="M8 103L9 104L8 103z"/>
<path style="fill:#0c25a4; stroke:none;" d="M27 103L26 107C27.915 108.277 27.085 108.277 29 107L29 110L31 110C30.9642 107.921 30.9445 107.724 32 106L29 103L27 103z"/>
<path style="fill:#6198e7; stroke:none;" d="M54 103C54.0313 104.832 53.9205 104.559 55 106C54.7488 104.548 54.6848 104.248 54 103z"/>
<path style="fill:#4699e1; stroke:none;" d="M61 103L62 104L61 103z"/>
<path style="fill:#4e9fe2; stroke:none;" d="M64 103L65 104L64 103z"/>
<path style="fill:#877f97; stroke:none;" d="M7 104L8 105L7 104z"/>
<path style="fill:#cbc4d8; stroke:none;" d="M8 104L7 107C9.1579 106.022 9.50072 105.812 8 104z"/>
<path style="fill:#85b3eb; stroke:none;" d="M44 104L45 105L44 104z"/>
<path style="fill:#bad9f4; stroke:none;" d="M59 104L60 105L59 104z"/>
<path style="fill:#004ad6; stroke:none;" d="M72.6667 104.333C72.2222 104.778 73.2778 104.722 73.3333 104.667C73.7778 104.222 72.7222 104.278 72.6667 104.333z"/>
<path style="fill:#acebf2; stroke:none;" d="M87 104L88 105L87 104z"/>
<path style="fill:#a9f1eb; stroke:none;" d="M95.6667 104.333C95.2222 104.778 96.2778 104.722 96.3333 104.667C96.7778 104.222 95.7222 104.278 95.6667 104.333z"/>
<path style="fill:#e0e7f8; stroke:none;" d="M45 105L46 106L45 105z"/>
<path style="fill:#a9baf0; stroke:none;" d="M46.3333 105.667C46.2778 105.722 46.2222 106.778 46.6667 106.333C46.7222 106.278 46.7778 105.222 46.3333 105.667z"/>
<path style="fill:#3c81e2; stroke:none;" d="M47 105C49.4826 106.423 51.177 106.434 54 106C51.6684 105.015 49.5433 105.019 47 105z"/>
<path style="fill:#b4d2f4; stroke:none;" d="M55 105L56 106L55 105z"/>
<path style="fill:#5e80e5; stroke:none;" d="M73 105L74 106L73 105z"/>
<path style="fill:#0050d5; stroke:none;" d="M74 105C75.2228 106.195 75.42 106.316 77 107C75.7772 105.805 75.58 105.684 74 105z"/>
<path style="fill:#59e6da; stroke:none;" d="M96 105L97 106L96 105z"/>
<path style="fill:#8869cf; stroke:none;" d="M12 106L13 107L12 106z"/>
<path style="fill:#3347bb; stroke:none;" d="M30.6667 106.333C30.2222 106.778 31.2778 106.722 31.3333 106.667C31.7778 106.222 30.7222 106.278 30.6667 106.333z"/>
<path style="fill:#0019ae; stroke:none;" d="M32 106L31 108L33 108C33 106.147 33.2997 106.65 32 106z"/>
<path style="fill:#7796e6; stroke:none;" d="M39 106L40 107L39 106z"/>
<path style="fill:#003ed5; stroke:none;" d="M44.6667 106.333C44.2222 106.778 45.2778 106.722 45.3333 106.667C45.7778 106.222 44.7222 106.278 44.6667 106.333z"/>
<path style="fill:#deeaf8; stroke:none;" d="M47 108L50 107C48.2218 106.045 47.9786 106.234 47 108z"/>
<path style="fill:#1369db; stroke:none;" d="M52 106C53.5061 106.683 54.3148 106.826 56 107C54.494 106.317 53.6852 106.174 52 106z"/>
<path style="fill:#649be7; stroke:none;" d="M56 106L57 107L56 106z"/>
<path style="fill:#a6b4f0; stroke:none;" d="M74 106L75 107L74 106z"/>
<path style="fill:#6fdce8; stroke:none;" d="M89 106L90 107L89 106z"/>
<path style="fill:#b7ecf3; stroke:none;" d="M90 106L91 107L90 106z"/>
<path style="fill:#abf2ec; stroke:none;" d="M92 106L92 108C93.6351 107.455 93.4549 107.635 94 106L92 106z"/>
<path style="fill:#9cf1ea; stroke:none;" d="M95 106L96 107L95 106z"/>
<path style="fill:#5fe6aa; stroke:none;" d="M109 106L110 107L109 106z"/>
<path style="fill:#936fdc; stroke:none;" d="M13 107L14 108L13 107z"/>
<path style="fill:#5450db; stroke:none;" d="M22 107C23.2484 107.685 23.5484 107.749 25 108C23.7516 107.315 23.4516 107.251 22 107z"/>
<path style="fill:#8683da; stroke:none;" d="M26 107L25 109L27 109C27 107.147 27.2997 107.65 26 107z"/>
<path style="fill:#495dc8; stroke:none;" d="M28 107L27 109L29 109C29 107.147 29.2997 107.65 28 107z"/>
<path style="fill:#b4bbed; stroke:none;" d="M30.3333 107.667C30.2778 107.722 30.2222 108.778 30.6667 108.333C30.7222 108.278 30.7778 107.222 30.3333 107.667z"/>
<path style="fill:#c0d1f4; stroke:none;" d="M38 107L39 108L38 107z"/>
<path style="fill:#5f54e1; stroke:none;" d="M45 107L46 108L45 107z"/>
<path style="fill:#1933d6; stroke:none;" d="M46 107L47 108L46 107z"/>
<path style="fill:#96bbed; stroke:none;" d="M54.6667 107.333C54.2222 107.778 55.2778 107.722 55.3333 107.667C55.7778 107.222 54.7222 107.278 54.6667 107.333z"/>
<path style="fill:#2f8ddd; stroke:none;" d="M68.6667 107.333C68.2222 107.778 69.2778 107.722 69.3333 107.667C69.7778 107.222 68.7222 107.278 68.6667 107.333z"/>
<path style="fill:#687ee7; stroke:none;" d="M76 107L77 108L76 107z"/>
<path style="fill:#b6edf3; stroke:none;" d="M84 107L85 108L84 107z"/>
<path style="fill:#27dfcf; stroke:none;" d="M93.6667 107.333C93.2222 107.778 94.2778 107.722 94.3333 107.667C94.7778 107.222 93.7222 107.278 93.6667 107.333z"/>
<path style="fill:#9d7cde; stroke:none;" d="M15 108L16 109L15 108z"/>
<path style="fill:#3a349e; stroke:none;" d="M21.3333 108.667C21.2778 108.722 21.2222 109.778 21.6667 109.333C21.7222 109.278 21.7778 108.222 21.3333 108.667z"/>
<path style="fill:#b9b8f2; stroke:none;" d="M22 108C23.1394 109.015 23.6116 109.309 25 110C24.0198 108.217 24.0924 108.406 22 108z"/>
<path style="fill:#8491dc; stroke:none;" d="M31 108C31.6836 109.58 31.8048 109.777 33 111L33 108L31 108z"/>
<path style="fill:#baccf1; stroke:none;" d="M34 108L35 109L34 108z"/>
<path style="fill:#6a8fe1; stroke:none;" d="M38 108L39 109L38 108z"/>
<path style="fill:#87a1ec; stroke:none;" d="M78 108L79 109L78 108z"/>
<path style="fill:#d7f6f4; stroke:none;" d="M93 108C94.7691 108.779 96.0359 108.912 98 109C96.231 108.221 94.9641 108.088 93 108z"/>
<path style="fill:#5ce5b8; stroke:none;" d="M108 108L109 109L108 108z"/>
<path style="fill:#6f48c7; stroke:none;" d="M17 109L18 110L17 109z"/>
<path style="fill:#310e96; stroke:none;" d="M18 109C19.2484 109.685 19.5484 109.749 21 110C19.7516 109.315 19.4516 109.251 18 109z"/>
<path style="fill:#8a87e9; stroke:none;" d="M22 109C22.4057 111.092 22.2167 111.02 24 112C23.3087 110.612 23.0154 110.139 22 109z"/>
<path style="fill:#909dde; stroke:none;" d="M27 109L28 110L27 109z"/>
<path style="fill:#c9cfef; stroke:none;" d="M28 109L29 110L28 109z"/>
<path style="fill:#8eb9ec; stroke:none;" d="M80 109L81 110L80 109z"/>
<path style="fill:#ace9f1; stroke:none;" d="M87 109L88 110L87 109z"/>
<path style="fill:#76e8dd; stroke:none;" d="M100 109L101 110L100 109z"/>
<path style="fill:#53e4da; stroke:none;" d="M103.667 109.333C103.222 109.778 104.278 109.722 104.333 109.667C104.778 109.222 103.722 109.278 103.667 109.333z"/>
<path style="fill:#b0a1d9; stroke:none;" d="M20.6667 110.333C20.2222 110.778 21.2778 110.722 21.3333 110.667C21.7778 110.222 20.7222 110.278 20.6667 110.333z"/>
<path style="fill:#6a7ddb; stroke:none;" d="M30 110L31 111L30 110z"/>
<path style="fill:#0c2bca; stroke:none;" d="M31 110L32 111L31 110z"/>
<path style="fill:#399ee0; stroke:none;" d="M83.6667 110.333C83.2222 110.778 84.2778 110.722 84.3333 110.667C84.7778 110.222 83.7222 110.278 83.6667 110.333z"/>
<path style="fill:#0f8dd9; stroke:none;" d="M85 110C86.2483 110.685 86.5484 110.749 88 111C86.7516 110.315 86.4516 110.251 85 110z"/>
<path style="fill:#6ebfe3; stroke:none;" d="M88 110L89 111L88 110z"/>
<path style="fill:#5ae5c1; stroke:none;" d="M105.667 110.333C105.222 110.778 106.278 110.722 106.333 110.667C106.778 110.222 105.722 110.278 105.667 110.333z"/>
<path style="fill:#a5f1df; stroke:none;" d="M104.667 111.333C104.222 111.778 105.278 111.722 105.333 111.667C105.778 111.222 104.722 111.278 104.667 111.333z"/>
</svg>
